<svg width="28" height="28" viewBox="0 0 28 28" fill="none" xmlns="http://www.w3.org/2000/svg">
<path d="M27.5 14C27.5 21.4558 21.4558 27.5 14 27.5C6.54416 27.5 0.5 21.4558 0.5 14C0.5 6.54416 6.54416 0.5 14 0.5C21.4558 0.5 27.5 6.54416 27.5 14Z" stroke="white"/>
<path d="M8.40013 9.80003V17.2667C8.40977 17.5293 8.50217 17.748 8.67733 17.9228C8.85249 18.0977 9.0712 18.1901 9.33346 18.2H18.6668C18.9294 18.1904 19.1481 18.098 19.3229 17.9228C19.4978 17.7477 19.5902 17.529 19.6001 17.2667V9.80003H8.40013ZM8.40013 8.8667H19.6001C19.8627 8.87634 20.0814 8.96874 20.2563 9.1439C20.4311 9.31905 20.5235 9.53777 20.5335 9.80003V17.2667C20.5238 17.7919 20.3415 18.2318 19.9865 18.5864C19.6316 18.9411 19.1916 19.1234 18.6668 19.1334H9.33346C8.80831 19.1237 8.3684 18.9414 8.01373 18.5864C7.65906 18.2315 7.47675 17.7915 7.4668 17.2667V9.80003C7.47644 9.53745 7.56884 9.31874 7.744 9.1439C7.91915 8.96905 8.13786 8.87665 8.40013 8.8667ZM19.7168 9.80003L16.1146 13.9272C15.8424 14.2287 15.524 14.462 15.1593 14.6272C14.7947 14.7924 14.4083 14.875 14.0001 14.875C13.592 14.875 13.2056 14.7924 12.8409 14.6272C12.4763 14.462 12.1579 14.2287 11.8857 13.9272L8.28346 9.80003H19.7168ZM9.52293 9.80003L12.6001 13.3145C12.7753 13.5186 12.9844 13.6741 13.2273 13.7812C13.4703 13.8882 13.7279 13.9417 14.0001 13.9417C14.2724 13.9417 14.53 13.8882 14.7729 13.7812C15.0159 13.6741 15.225 13.5186 15.4001 13.3145L18.4773 9.80003H9.52293Z" fill="#F2F2F2"/>
</svg>
