<svg width="28" height="28" viewBox="0 0 28 28" fill="none" xmlns="http://www.w3.org/2000/svg">
<circle cx="14" cy="14" r="13.5" stroke="white"/>
<g clip-path="url(#clip0_161_110)">
<path d="M11.2313 20.0669C16.8652 20.0669 19.9475 15.3982 19.9475 11.3507C19.9475 11.2195 19.9446 11.0853 19.9387 10.9541C20.5383 10.5204 21.0558 9.98332 21.4668 9.36797C20.9084 9.61642 20.3154 9.77869 19.7083 9.84922C20.3476 9.46604 20.8262 8.86408 21.0555 8.15493C20.4541 8.51133 19.7965 8.76274 19.1107 8.89839C18.6486 8.40742 18.0377 8.08234 17.3724 7.97342C16.707 7.86449 16.0243 7.97777 15.4298 8.29575C14.8353 8.61374 14.3621 9.11871 14.0834 9.7326C13.8047 10.3465 13.7359 11.0351 13.8878 11.692C12.6701 11.6309 11.4788 11.3145 10.3912 10.7635C9.3036 10.2124 8.34392 9.43899 7.57441 8.49326C7.1833 9.16758 7.06362 9.96552 7.23969 10.7249C7.41576 11.4843 7.87438 12.1482 8.52232 12.5816C8.03588 12.5661 7.5601 12.4351 7.13428 12.1995V12.2374C7.13384 12.945 7.37849 13.631 7.82662 14.1787C8.27475 14.7263 8.89872 15.1019 9.59245 15.2416C9.14184 15.3648 8.6689 15.3828 8.21024 15.2941C8.406 15.9026 8.78687 16.4349 9.2997 16.8166C9.81254 17.1983 10.4317 17.4104 11.0709 17.4232C9.9858 18.2756 8.64538 18.7379 7.26553 18.7357C7.02083 18.7353 6.77636 18.7203 6.53345 18.6908C7.93522 19.5901 9.56587 20.0678 11.2313 20.0669Z" fill="#F2F2F2"/>
</g>
<defs>
<clipPath id="clip0_161_110">
<rect width="14.9333" height="14.9333" fill="white" transform="translate(6.53345 6.53345)"/>
</clipPath>
</defs>
</svg>
