<svg width="28" height="28" viewBox="0 0 28 28" fill="none" xmlns="http://www.w3.org/2000/svg">
<circle cx="14" cy="14" r="13.5" stroke="white"/>
<g clip-path="url(#clip0_161_113)">
<path d="M14.0001 7.87803C15.9951 7.87803 16.2314 7.88678 17.0159 7.92178C17.7451 7.95386 18.1389 8.07636 18.4014 8.17845C18.7484 8.31261 18.9993 8.47595 19.2589 8.73553C19.5214 8.99803 19.6818 9.24595 19.8159 9.59303C19.918 9.85553 20.0405 10.2522 20.0726 10.9784C20.1076 11.7659 20.1164 12.0022 20.1164 13.9943C20.1164 15.9893 20.1076 16.2255 20.0726 17.0101C20.0405 17.7393 19.918 18.133 19.8159 18.3955C19.6818 18.7426 19.5184 18.9934 19.2589 19.253C18.9964 19.5155 18.7484 19.6759 18.4014 19.8101C18.1389 19.9122 17.7422 20.0347 17.0159 20.0668C16.2284 20.1018 15.9922 20.1105 14.0001 20.1105C12.0051 20.1105 11.7689 20.1018 10.9843 20.0668C10.2551 20.0347 9.86136 19.9122 9.59886 19.8101C9.25178 19.6759 9.00095 19.5126 8.74136 19.253C8.47886 18.9905 8.31845 18.7426 8.18428 18.3955C8.0822 18.133 7.9597 17.7364 7.92761 17.0101C7.89261 16.2226 7.88386 15.9864 7.88386 13.9943C7.88386 11.9993 7.89261 11.763 7.92761 10.9784C7.9597 10.2493 8.0822 9.85553 8.18428 9.59303C8.31845 9.24595 8.48178 8.99511 8.74136 8.73553C9.00386 8.47303 9.25178 8.31261 9.59886 8.17845C9.86136 8.07636 10.258 7.95386 10.9843 7.92178C11.7689 7.88678 12.0051 7.87803 14.0001 7.87803ZM14.0001 6.53345C11.973 6.53345 11.7193 6.5422 10.923 6.5772C10.1297 6.6122 9.58428 6.74053 9.11178 6.92428C8.61886 7.11678 8.20178 7.37053 7.78761 7.78761C7.37053 8.20178 7.11678 8.61886 6.92428 9.10886C6.74053 9.58428 6.6122 10.1268 6.5772 10.9201C6.5422 11.7193 6.53345 11.973 6.53345 14.0001C6.53345 16.0272 6.5422 16.2809 6.5772 17.0772C6.6122 17.8705 6.74053 18.4159 6.92428 18.8884C7.11678 19.3814 7.37053 19.7984 7.78761 20.2126C8.20178 20.6268 8.61886 20.8834 9.10886 21.073C9.58428 21.2568 10.1268 21.3851 10.9201 21.4201C11.7164 21.4551 11.9701 21.4639 13.9972 21.4639C16.0243 21.4639 16.278 21.4551 17.0743 21.4201C17.8676 21.3851 18.413 21.2568 18.8855 21.073C19.3755 20.8834 19.7926 20.6268 20.2068 20.2126C20.6209 19.7984 20.8776 19.3814 21.0672 18.8914C21.2509 18.4159 21.3793 17.8734 21.4143 17.0801C21.4493 16.2839 21.458 16.0301 21.458 14.003C21.458 11.9759 21.4493 11.7222 21.4143 10.9259C21.3793 10.1326 21.2509 9.5872 21.0672 9.1147C20.8834 8.61886 20.6297 8.20178 20.2126 7.78761C19.7984 7.37345 19.3814 7.11678 18.8914 6.9272C18.4159 6.74345 17.8734 6.61511 17.0801 6.58011C16.2809 6.5422 16.0272 6.53345 14.0001 6.53345Z" fill="#F2F2F2"/>
<path d="M14.0002 10.1648C11.8827 10.1648 10.1648 11.8827 10.1648 14.0002C10.1648 16.1177 11.8827 17.8356 14.0002 17.8356C16.1177 17.8356 17.8356 16.1177 17.8356 14.0002C17.8356 11.8827 16.1177 10.1648 14.0002 10.1648ZM14.0002 16.4881C12.6265 16.4881 11.5123 15.374 11.5123 14.0002C11.5123 12.6265 12.6265 11.5123 14.0002 11.5123C15.374 11.5123 16.4881 12.6265 16.4881 14.0002C16.4881 15.374 15.374 16.4881 14.0002 16.4881Z" fill="#F2F2F2"/>
<path d="M18.8826 10.0131C18.8826 10.5089 18.4801 10.9085 17.9872 10.9085C17.4914 10.9085 17.0918 10.506 17.0918 10.0131C17.0918 9.51726 17.4943 9.11768 17.9872 9.11768C18.4801 9.11768 18.8826 9.52018 18.8826 10.0131Z" fill="#F2F2F2"/>
</g>
<defs>
<clipPath id="clip0_161_113">
<rect width="14.9333" height="14.9333" fill="white" transform="translate(6.53345 6.53345)"/>
</clipPath>
</defs>
</svg>
