<svg width="32" height="32" viewBox="0 0 32 32" fill="none" xmlns="http://www.w3.org/2000/svg">
<path d="M9.67606 11.3152V20.7698C9.68787 21.1023 9.80101 21.3792 10.0155 21.6006C10.23 21.822 10.4978 21.939 10.8189 21.9516H22.2475C22.569 21.9394 22.8368 21.8224 23.0509 21.6006C23.265 21.3788 23.3782 21.1019 23.3903 20.7698V11.3152H9.67606ZM9.67606 10.1334H23.3903C23.7119 10.1456 23.9797 10.2626 24.1938 10.4844C24.4079 10.7062 24.521 10.9832 24.5332 11.3152V20.7698C24.5214 21.4348 24.2982 21.9918 23.8635 22.4409C23.4288 22.89 22.8902 23.1208 22.2475 23.1334H10.8189C10.1759 23.1212 9.6372 22.8904 9.20292 22.4409C8.76863 21.9914 8.54539 21.4344 8.5332 20.7698V11.3152C8.54501 10.9828 8.65816 10.7058 8.87263 10.4844C9.08711 10.263 9.35492 10.146 9.67606 10.1334ZM23.5332 11.3152L19.1223 16.5412C18.789 16.923 18.3991 17.2184 17.9526 17.4276C17.5062 17.6368 17.033 17.7414 16.5332 17.7414C16.0334 17.7414 15.5603 17.6368 15.1138 17.4276C14.6673 17.2184 14.2774 16.923 13.9441 16.5412L9.5332 11.3152H23.5332ZM11.0509 11.3152L14.8189 15.7654C15.0334 16.0238 15.2894 16.2208 15.5869 16.3563C15.8844 16.4918 16.1999 16.5596 16.5332 16.5596C16.8665 16.5596 17.182 16.4918 17.4795 16.3563C17.777 16.2208 18.033 16.0238 18.2475 15.7654L22.0155 11.3152H11.0509Z" fill="#DEDEDE"/>
</svg>
