<svg width="32" height="32" viewBox="0 0 32 32" fill="none" xmlns="http://www.w3.org/2000/svg">
<g clip-path="url(#clip0_151_105)">
<path d="M16.0001 9.00334C18.2801 9.00334 18.5501 9.01334 19.4468 9.05334C20.2801 9.09001 20.7301 9.23001 21.0301 9.34668C21.4268 9.50001 21.7135 9.68667 22.0101 9.98334C22.3101 10.2833 22.4935 10.5667 22.6468 10.9633C22.7635 11.2633 22.9035 11.7167 22.9401 12.5467C22.9801 13.4467 22.9901 13.7167 22.9901 15.9933C22.9901 18.2733 22.9801 18.5433 22.9401 19.44C22.9035 20.2733 22.7635 20.7233 22.6468 21.0233C22.4935 21.42 22.3068 21.7067 22.0101 22.0033C21.7101 22.3033 21.4268 22.4867 21.0301 22.64C20.7301 22.7567 20.2768 22.8967 19.4468 22.9333C18.5468 22.9733 18.2768 22.9833 16.0001 22.9833C13.7201 22.9833 13.4501 22.9733 12.5535 22.9333C11.7201 22.8967 11.2701 22.7567 10.9701 22.64C10.5735 22.4867 10.2868 22.3 9.99013 22.0033C9.69013 21.7033 9.5068 21.42 9.35346 21.0233C9.2368 20.7233 9.0968 20.27 9.06013 19.44C9.02013 18.54 9.01013 18.27 9.01013 15.9933C9.01013 13.7133 9.02013 13.4433 9.06013 12.5467C9.0968 11.7133 9.2368 11.2633 9.35346 10.9633C9.5068 10.5667 9.69346 10.28 9.99013 9.98334C10.2901 9.68334 10.5735 9.50001 10.9701 9.34668C11.2701 9.23001 11.7235 9.09001 12.5535 9.05334C13.4501 9.01334 13.7201 9.00334 16.0001 9.00334ZM16.0001 7.46667C13.6835 7.46667 13.3935 7.47667 12.4835 7.51667C11.5768 7.55667 10.9535 7.70334 10.4135 7.91334C9.85013 8.13334 9.37346 8.42334 8.90013 8.90001C8.42346 9.37334 8.13346 9.85001 7.91346 10.41C7.70346 10.9533 7.5568 11.5733 7.5168 12.48C7.4768 13.3933 7.4668 13.6833 7.4668 16C7.4668 18.3167 7.4768 18.6067 7.5168 19.5167C7.5568 20.4233 7.70346 21.0467 7.91346 21.5867C8.13346 22.15 8.42346 22.6267 8.90013 23.1C9.37346 23.5733 9.85013 23.8667 10.4101 24.0833C10.9535 24.2933 11.5735 24.44 12.4801 24.48C13.3901 24.52 13.6801 24.53 15.9968 24.53C18.3135 24.53 18.6035 24.52 19.5135 24.48C20.4201 24.44 21.0435 24.2933 21.5835 24.0833C22.1435 23.8667 22.6201 23.5733 23.0935 23.1C23.5668 22.6267 23.8601 22.15 24.0768 21.59C24.2868 21.0467 24.4335 20.4267 24.4735 19.52C24.5135 18.61 24.5235 18.32 24.5235 16.0033C24.5235 13.6867 24.5135 13.3967 24.4735 12.4867C24.4335 11.58 24.2868 10.9567 24.0768 10.4167C23.8668 9.85001 23.5768 9.37334 23.1001 8.90001C22.6268 8.42667 22.1501 8.13334 21.5901 7.91667C21.0468 7.70667 20.4268 7.56001 19.5201 7.52001C18.6068 7.47667 18.3168 7.46667 16.0001 7.46667Z" fill="#DEDEDE"/>
<path d="M16 11.6167C13.58 11.6167 11.6167 13.58 11.6167 16C11.6167 18.42 13.58 20.3834 16 20.3834C18.42 20.3834 20.3834 18.42 20.3834 16C20.3834 13.58 18.42 11.6167 16 11.6167ZM16 18.8434C14.43 18.8434 13.1567 17.57 13.1567 16C13.1567 14.43 14.43 13.1567 16 13.1567C17.57 13.1567 18.8434 14.43 18.8434 16C18.8434 17.57 17.57 18.8434 16 18.8434Z" fill="#DEDEDE"/>
<path d="M21.5804 11.4433C21.5804 12.0099 21.1204 12.4666 20.557 12.4666C19.9904 12.4666 19.5337 12.0066 19.5337 11.4433C19.5337 10.8766 19.9937 10.4199 20.557 10.4199C21.1204 10.4199 21.5804 10.8799 21.5804 11.4433Z" fill="#DEDEDE"/>
</g>
<defs>
<clipPath id="clip0_151_105">
<rect width="17.0667" height="17.0667" fill="white" transform="translate(7.4668 7.46667)"/>
</clipPath>
</defs>
</svg>
