<svg width="32" height="32" viewBox="0 0 32 32" fill="none" xmlns="http://www.w3.org/2000/svg">
<path d="M12.8358 22.9333C19.2745 22.9333 22.7971 17.5977 22.7971 12.972C22.7971 12.822 22.7938 12.6687 22.7871 12.5187C23.4724 12.0231 24.0638 11.4093 24.5335 10.706C23.8953 10.99 23.2177 11.1754 22.5238 11.256C23.2544 10.8181 23.8014 10.1301 24.0635 9.31967C23.3762 9.72699 22.6245 10.0143 21.8408 10.1693C21.3127 9.60824 20.6145 9.23672 19.8541 9.11223C19.0937 8.98774 18.3135 9.11721 17.6341 9.48062C16.9546 9.84403 16.4139 10.4211 16.0953 11.1227C15.7768 11.8243 15.6982 12.6113 15.8718 13.362C14.4801 13.2922 13.1187 12.9307 11.8757 12.3009C10.6327 11.6711 9.53591 10.7872 8.65646 9.70634C8.20948 10.477 8.0727 11.3889 8.27393 12.2568C8.47516 13.1247 8.99929 13.8834 9.7398 14.3787C9.18387 14.361 8.64011 14.2113 8.15346 13.942V13.9853C8.15297 14.7941 8.43256 15.578 8.94471 16.2039C9.45686 16.8298 10.17 17.2591 10.9628 17.4187C10.4478 17.5596 9.90732 17.5801 9.38313 17.4787C9.60685 18.1742 10.0421 18.7825 10.6282 19.2187C11.2143 19.655 11.922 19.8973 12.6525 19.912C11.4123 20.8861 9.88043 21.4145 8.30346 21.412C8.0238 21.4116 7.74441 21.3944 7.4668 21.3607C9.06883 22.3885 10.9324 22.9343 12.8358 22.9333Z" fill="#DEDEDE"/>
</svg>
